:SAMPLES-PER-SECOND 30
:FULLY-SPECIFIED
:DEGREES
196
root  -5.588244265 36.1160008 10.78437745 8.421020508 -26.69299316 4.95300293
lowerback  13.1566 8.388580322 -2.593719959
upperback  5.04516983 10.48659992 -5.186439991
thorax  -1.408499956 5.22397995 -5.442719936
lowerneck  10.03829956 -0.4279659986 -7.482079983
upperneck  4.119750023 -1.456689954 21.53009987
head  -0.3670899868 -1.085260034 7.96780014
lclavicle  0 -9.442270133e-015 7.951389973e-016
lhumerus  -8.312709808 -34.39870071 84.03269958
lradius  1.348569727e-031 -3.263464988e-031 112.4520035
lwrist  -7.062250077e-031 3.089734409e-031 35.41880035
lhand  -1.496451383e-031 -27.76390076 20.11240005
lfingers  90 7.125020027 -90
lthumb  89.89689403 5.08795885 91.16245106
rclavicle  0 -9.442270133e-015 7.951389973e-016
rhumerus  48.27119827 -35.7201004 -50.97019958
rradius  2.301024012e-031 2.678457118e-031 49.33459854
rwrist  7.062250077e-031 5.296687558e-031 -52.86420059
rhand  -7.920061211e-032 -33.2840004 9.303460121
rfingers  -90 -7.125020027 -90
rthumb  -92.93752616 -24.25625642 -97.11982154
rfemur  1.967829943 0.4631890059 23.71769905
rtibia  -0 0 54.41080093
rfoot  -0 -6.25357008 -12.86610031
rtoes  5.373923086 19.29304026 -105.8922705
lfemur  -62.16910172 -14.15629959 -13.52229977
ltibia  -0 0 56.65309906
lfoot  -0 1.073750019 -19.2201004
ltoes  -4.250644065 -19.5611806 -102.515957
197
root  -5.657044358 36.03377755 10.81262198 8.804016113 -27.3500061 3.502990723
lowerback  13.06569958 8.487259865 -1.924049973
upperback  4.966829777 10.71179962 -4.910009861
thorax  -1.361899972 5.34209013 -5.52850008
lowerneck  9.733389854 -0.2647509873 -7.549270153
upperneck  4.147469997 -1.242660046 21.7147007
head  -0.3419570029 -0.9660339952 8.030920029
lclavicle  0 -9.442270133e-015 7.951389973e-016
lhumerus  -9.436180115 -33.35309982 84.75469971
lradius  1.407863358e-031 -3.23832747e-031 113.4970016
lwrist  -7.062250077e-031 1.324171889e-031 35.82899857
lhand  -1.496451383e-031 -27.76390076 20.11240005
lfingers  90 7.125020027 -90
lthumb  89.89689403 5.08795885 91.16245106
rclavicle  0 -9.442270133e-015 7.951389973e-016
rhumerus  46.07089996 -34.66749954 -51.36410141
rradius  2.260463586e-031 2.712775039e-031 50.19670105
rwrist  7.062250077e-031 5.296687558e-031 -53.79460144
rhand  -7.920061211e-032 -33.2840004 9.303460121
rfingers  -90 -7.125020027 -90
rthumb  -92.93752616 -24.25625642 -97.11982154
rfemur  2.341890097 1.076060057 24.23450089
rtibia  -0 0 54.0617981
rfoot  -0 -5.726910114 -10.47290039
rtoes  5.373923086 19.29304026 -105.8922705
lfemur  -62.41040039 -13.36250019 -12.26780033
ltibia  -0 0 58.00719833
lfoot  -0 0.675763011 -19.04529953
ltoes  -4.250644065 -19.5611806 -102.515957
198
root  -5.715977676 35.97911024 10.83140035 9.322998047 -27.91099548 1.960998535
lowerback  13.00329971 8.437729836 -1.172170043
upperback  4.80080986 10.74839973 -4.62293005
thorax  -1.423200011 5.364610195 -5.636040211
lowerneck  9.503120422 0.03157800063 -7.727769852
upperneck  4.321990013 -0.8849080205 21.97500038
head  -0.311661005 -0.7756429911 8.137290001
lclavicle  0 -9.442270133e-015 7.951389973e-016
lhumerus  -10.86699963 -32.2677002 85.62840271
lradius  1.465455029e-031 -3.212675769e-031 114.5199966
lwrist  -1.412450015e-030 -1.765562519e-031 36.10229874
lhand  -1.496451383e-031 -27.76390076 20.11240005
lfingers  90 7.125020027 -90
lthumb  89.89689403 5.08795885 91.16245106
rclavicle  0 -9.442270133e-015 7.951389973e-016
rhumerus  43.55580139 -33.15570068 -51.4219017
rradius  2.219348433e-031 2.74651353e-031 51.05970001
rwrist  7.062250077e-031 1.765562519e-031 -54.62459946
rhand  -7.920061211e-032 -33.2840004 9.303460121
rfingers  -90 -7.125020027 -90
rthumb  -92.93752616 -24.25625642 -97.11982154
rfemur  2.614259958 1.488280058 24.7901001
rtibia  -0 0 53.67369843
rfoot  -0 -5.053249836 -8.174650192
rtoes  5.373923086 19.29304026 -105.8922705
lfemur  -62.66740036 -12.63879967 -10.86699963
ltibia  -0 0 59.17430115
lfoot  -0 0.7044559717 -18.6697998
ltoes  -4.250644065 -19.5611806 -102.515957
199
root  -5.788577823 35.96355408 10.9193111 9.218994141 -28.63900757 1.281982422
lowerback  12.68570042 8.436050415 -1.080970049
upperback  4.859119892 10.77709961 -4.523779869
thorax  -1.194049954 5.382500172 -5.525670052
lowerneck  9.094050407 0.2820039988 -7.852250099
upperneck  4.705269814 -0.6148999929 22.16209984
head  -0.1784230024 -0.6067479849 8.21088028
lclavicle  0 -9.442270133e-015 7.951389973e-016
lhumerus  -12.22399998 -31.27599907 86.45610046
lradius  1.51646045e-031 -3.188917017e-031 115.4329987
lwrist  -7.062250077e-031 1.324171889e-031 36.27339935
lhand  -1.496451383e-031 -27.76390076 20.11240005
lfingers  90 7.125020027 -90
lthumb  89.89689403 5.08795885 91.16245106
rclavicle  0 -9.442270133e-015 7.951389973e-016
rhumerus  41.09420013 -31.55209923 -51.52479935
rradius  2.176089549e-031 2.780913216e-031 51.95650101
rwrist  7.062250077e-031 5.296687558e-031 -54.84400177
rhand  -7.920061211e-032 -33.2840004 9.303460121
rfingers  -90 -7.125020027 -90
rthumb  -92.93752616 -24.25625642 -97.11982154
rfemur  3.360450029 1.570919991 24.24889946
rtibia  -0 0 53.21080017
rfoot  -4.428095946e-032 -4.588079929 -5.836979866
rtoes  5.373923086 19.29304026 -105.8922705
lfemur  -62.32149887 -12.25739956 -10.3178997
ltibia  -0 0 60.08879852
lfoot  -0 0.7135149837 -17.45429993
ltoes  -4.250644065 -19.5611806 -102.515957
200
root  -5.85835562 35.95599978 11.01028863 8.867980957 -29.40899658 0.9959716797
lowerback  12.33950043 8.472940445 -1.287420034
upperback  5.012519836 10.82019997 -4.550730228
thorax  -0.8768429756 5.406010151 -5.377049923
lowerneck  8.688540459 0.4471710026 -7.643549919
upperneck  4.911089897 -0.399266988 22.14789963
head  -0.0845843032 -0.4667280018 8.15789032
lclavicle  0 -9.442270133e-015 7.951389973e-016
lhumerus  -13.53590012 -30.48130035 87.19989777
lradius  1.56630758e-031 -3.164731363e-031 116.3320007
lwrist  -7.062250077e-031 4.413906298e-032 36.47330093
lhand  -1.496451383e-031 -27.76390076 20.11240005
lfingers  90 7.125020027 -90
lthumb  89.89689403 5.08795885 91.16245106
rclavicle  0 -9.442270133e-015 7.951389973e-016
rhumerus  38.67279816 -30.08040047 -51.76950073
rradius  2.133933159e-031 2.813391781e-031 52.81999969
rwrist  7.062250077e-031 5.296687558e-031 -54.85689926
rhand  -7.920061211e-032 -33.2840004 9.303460121
rfingers  -90 -7.125020027 -90
rthumb  -92.93752616 -24.25625642 -97.11982154
rfemur  4.163670063 1.432260036 23.24920082
rtibia  -0 0 52.76070023
rfoot  -4.425398739e-032 -4.130109787 -4.013850212
rtoes  5.373923086 19.29304026 -105.8922705
lfemur  -61.69509888 -12.03250027 -10.1402998
ltibia  -0 0 60.7010994
lfoot  -0 0.01700510085 -16.60079956
ltoes  -4.250644065 -19.5611806 -102.515957
